<?xml version="1.0" standalone="no"?>
<svg xmlns="http://www.w3.org/2000/svg"
    width="96"
    height="32"
    viewBox="0 0 126 32">
    <g fill="#0097ff"
       transform="translate(0 3.9999999999999982) scale(0.2800001)">
        <svg width="100.0"
             height="100.0"
             x="0.0"
             y="0.0"
             viewBox="0 0 100 100">

            <path
                fill-rule="evenodd"
                clip-rule="evenodd"
                d="M66.292,40.878c-0.795,3.884-2.572,6.693-4.045,9.604  c-1.042,2.058-0.432,3.16,1.157,4.18c3.689,2.369,7.408,4.7,11.121,7.034c1.476,0.926,2.77,1.95,2.914,3.892  c0.178,2.387-1.341,3.413-3.26,4.016c-1.563,0.49-2.641,1.297-1.912,2.996c0.844,1.961,2.331,0.899,3.54,0.378  c1.275-0.554,2.473-1.282,3.707-1.936c1.199-0.639,2.504-0.813,2.981,0.675c0.434,1.358-1.046,1.376-1.895,1.739  c-1.851,0.787-4.11,0.763-5.615,2.674c2.406,1.259,4.703,0.306,6.937,0.439c0.949,0.056,2.393-0.273,2.468,1  c0.093,1.553-1.461,1.338-2.484,1.321c-1.492-0.024-2.982-0.244-4.472-0.378c-0.471-0.042-1.034-0.303-1.271,0.358  c-0.2,0.559,0.192,0.932,0.563,1.271c1.077,0.979,2.462,1.255,3.794,1.662c0.621,0.19,1.623,0.117,1.468,1.093  c-0.151,0.937-1.114,1.197-1.89,1.024c-1.054-0.237-2.163-0.581-3.038-1.183c-5.85-4.025-12.608-5.226-19.382-6.459  c-1.88-0.344-4.535-0.093-5.074-2.324c-0.546-2.265,1.943-3.201,3.492-4.361c1.831-1.373,3.786-2.585,5.622-3.953  c1.51-1.124,1.285-1.689-0.531-2.481c-7.498-3.27-15.076-2.924-22.761-1.005c-0.675,0.168-1.376,0.334-2.062,0.322  c-4.32-0.076-4.797,0.173-3.161,4.977c1.379,4.047,3.265,7.921,4.696,11.954c1.209,3.414,0.697,4.32-2.52,5.913  c-2.795,1.382-5.826,2.06-8.833,2.714c-5.231,1.139-9.232,4.081-12.622,8.046c-0.583,0.683-1.13,1.404-1.781,2.017  c-0.828,0.775-1.944,0.904-2.695,0.132c-0.677-0.695,0.082-1.521,0.611-2.07c0.953-0.985,2.019-1.86,3.635-3.323  c-3.025,0.134-5.218,0.261-7.414,0.305c-0.624,0.012-1.581,0.258-1.679-0.734c-0.096-0.965,0.667-1.443,1.531-1.468  c1.992-0.059,3.986,0.005,5.98-0.015c0.67-0.007,1.557,0.14,1.702-0.787c0.165-1.041-0.677-1.355-1.502-1.456  c-1.583-0.19-3.19-0.209-4.756-0.485c-0.981-0.17-2.035-0.66-1.715-1.981c0.277-1.146,1.247-1.171,2.179-0.907  c1.913,0.544,3.804,1.163,5.718,1.704c1.358,0.385,2.514,0.556,1.692-1.572c-0.246-0.642-1.083-1.639-0.211-2.119  c0.991-0.549,1.771,0.492,1.972,1.305c0.938,3.776,3.051,3.164,5.688,1.851c2.676-1.337,5.35-2.646,7.916-4.196  c1.78-1.078,2.177-2.321,1.562-4.233c-0.801-2.486-1.963-4.783-3.186-7.07c-1.452-2.719-3.066-5.362-3.833-8.409  c-1.051-4.18-0.462-5.32,3.81-6.343c3.772-0.901,7.576-1.685,11.383-2.433c4.118-0.81,4.54-1.388,3.216-5.257  c-1.873-5.464-1.965-10.789-0.012-16.368c1.57-4.484,1.785-4.308-2.84-5.776c-6.636-2.106-12.401-5.471-15.078-12.522  c-0.784-2.063-2.654-2.719-4.792-3.011c-1.531-0.21-4.434,0.183-4.113-1.753c0.4-2.424,2.544-0.137,3.91-0.056  c0.947,0.056,1.925,0.239,2.407-0.622c0.435-0.778-0.327-1.473-0.825-2.075c-0.938-1.126-2.331-2.058-1.619-3.853  c0.19-0.483,0.591-0.822,1.173-0.585c1.694,0.69,1.733,2.272,1.983,3.74c0.128,0.756-0.032,1.946,0.958,1.934  c1.495-0.017,0.587-1.361,0.784-2.104c0.151-0.575,0.199-1.18,0.343-1.758c0.202-0.81,0.572-1.727,1.544-1.429  c1.244,0.38,0.328,1.297,0.185,1.975c-0.144,0.681-0.426,1.329-0.573,2.009c-0.59,2.75,0.149,3.577,2.928,3.801  c1.317,0.105,3.712-0.912,3.708,1.031c-0.003,2.107-2.4,0.929-3.707,1.017c-1.812,0.122-2.231,0.727-1.123,2.109  c4.257,5.306,9.991,7.739,16.623,8.3c1.702,0.144,2.241-1.202,2.441-2.5c0.224-1.468,0.222-2.987,0.178-4.479  c-0.095-3.262,1.034-6.078,3.084-8.517c2.305-2.738,4.967-5.296,8.868-4.406c4.291,0.98,6.971,4.079,8.349,8.205  c0.807,2.416,0.655,4.972,0.272,7.422c-0.482,3.08-0.404,6.174-0.597,9.255c-0.145,2.307,0.102,4.528,1.901,6.376  c1.197,1.229,1.441,3.021,1.902,4.655c1.424,5.04,7.095,7.934,12.071,6.135c2.085-0.753,3.214-2.277,3.196-4.555  c-0.002-0.712-0.007-1.46,0.788-1.77c0.482-0.188,0.978-0.032,1.351,0.383c0.688,0.763,0.007,1.221-0.352,1.794  c-0.505,0.805-0.714,1.794-0.044,2.497c0.653,0.69,1.458-0.078,2.194-0.241c1.495-0.336,3.346-2.809,4.297-0.736  c0.751,1.636-2.136,1.892-3.497,2.67c-0.844,0.48-2.597,0.227-2.253,1.785c0.266,1.197,1.683,1.195,2.785,1.272  c0.397,0.029,0.802-0.012,1.194,0.044c0.727,0.105,1.851-0.161,1.688,1.073c-0.107,0.807-1,1.015-1.697,0.744  c-4.794-1.854-9.626-0.129-14.435-0.156c-5.51-0.034-9.724-1.855-11.91-7.22C67.252,41.937,66.936,41.681,66.292,40.878z   M64.204,73.093c1.112,0.943,2.324,1.309,3.6,1.348c1.238,0.037,1.779-0.907,1.765-1.934c-0.02-1.468-1.185-1.038-1.914-0.743  C66.584,72.195,65.26,71.896,64.204,73.093z"></path>
        </svg>
    </g>

    <path fill="black"
          fill-rule="nonzero"
          d="M12.89 8.62L12.89 8.62L12.91 10.46Q12.82 12.22 12.48 13.42Q12.14 14.62 11.16 15.60L11.16 15.60Q9.53 17.23 6.41 17.23L6.41 17.23Q2.74 17.23 1.37 16.26Q0 15.29 0 12.74L0 12.74L0 0.14L6.65 0.14Q9.53 0.14 11.16 1.78L11.16 1.78Q12.48 3.10 12.72 4.99L12.72 4.99Q12.89 6.34 12.89 8.62ZM8.83 13.20Q9.29 12.65 9.42 11.68Q9.55 10.70 9.55 8.64Q9.55 6.58 9.42 5.65Q9.29 4.73 8.83 4.18L8.83 4.18Q7.97 3.12 6.34 3.12L6.34 3.12L3.34 3.12L3.34 12.58Q3.34 13.54 3.98 13.90Q4.63 14.26 6.30 14.26Q7.97 14.26 8.83 13.20L8.83 13.20ZM27.07 14.26L27.07 17.23L21.02 17.23Q18.14 17.23 16.98 16.24Q15.82 15.24 15.82 12.72L15.82 12.72L15.82 0.14L27.07 0.14L27.07 3.12L19.15 3.12L19.15 7.13L24.70 7.13L24.46 10.10L19.15 10.10L19.15 12.48Q19.15 13.49 19.61 13.87Q20.06 14.26 21.26 14.26L21.26 14.26L27.07 14.26ZM41.59 0.14L41.59 3.12L35.57 3.12Q34.51 3.12 34.09 3.53Q33.67 3.94 33.67 4.94L33.67 4.94L33.67 7.32L39.94 7.32L39.70 10.30L33.67 10.30L33.67 17.23L30.34 17.23L30.34 3.62Q30.34 1.73 31.16 0.94Q31.99 0.14 34.01 0.14L34.01 0.14L41.59 0.14ZM53.74 0.14L57.05 0.14L57.05 11.38Q57.05 14.16 55.16 15.77Q53.28 17.38 50.52 17.38Q47.76 17.38 45.88 15.77Q43.99 14.16 43.99 11.38L43.99 11.38L43.99 0.14L47.33 0.14L47.33 11.26Q47.33 12.84 48.20 13.62Q49.08 14.40 50.52 14.40Q51.96 14.40 52.85 13.62Q53.74 12.84 53.74 11.26L53.74 11.26L53.74 0.14ZM72.05 12.19L72.05 12.19Q72.05 14.62 70.27 16.00Q68.50 17.38 65.74 17.38L65.74 17.38Q63.55 17.38 61.51 16.18L61.51 16.18Q60.50 15.55 59.86 14.41Q59.21 13.27 59.21 11.81L59.21 11.81L62.23 11.66Q62.23 12.96 63.34 13.68Q64.44 14.40 65.78 14.40L65.78 14.40Q68.78 14.40 68.78 12.29L68.78 12.29Q68.78 10.56 66.74 10.25L66.74 10.25L63.96 9.96Q61.87 9.65 60.65 8.47Q59.42 7.30 59.42 5.09Q59.42 2.88 61.18 1.44Q62.93 0 65.60 0Q68.28 0 69.91 1.36Q71.54 2.71 71.54 4.85L71.54 4.85L68.57 4.99Q68.16 2.90 65.76 2.90L65.76 2.90Q64.30 2.90 63.47 3.53Q62.64 4.15 62.64 5.00Q62.64 5.86 63.24 6.35Q63.84 6.84 64.73 6.96L64.73 6.96L67.46 7.25Q72.05 7.87 72.05 12.19ZM85.97 14.26L85.97 17.23L79.92 17.23Q77.04 17.23 75.88 16.24Q74.71 15.24 74.71 12.72L74.71 12.72L74.71 0.14L85.97 0.14L85.97 3.12L78.05 3.12L78.05 7.13L83.59 7.13L83.35 10.10L78.05 10.10L78.05 12.48Q78.05 13.49 78.50 13.87Q78.96 14.26 80.16 14.26L80.16 14.26L85.97 14.26Z"
          transform="translate(36, 9.384)">
    </path>
</svg>
